<svg width="91" height="111" viewBox="0 0 91 111" fill="none" xmlns="http://www.w3.org/2000/svg">
<path d="M20.3252 47.72V24.1378C20.3252 22.7479 20.8467 21.415 21.775 20.4322C22.7033 19.4494 23.9624 18.8973 25.2752 18.8973H32.7002C34.013 18.8973 35.2721 19.4494 36.2004 20.4322C37.1287 21.415 37.6502 22.7479 37.6502 24.1378V50.3402V8.41628C37.6502 7.02641 38.1717 5.69347 39.1 4.71069C40.0283 3.7279 41.2874 3.17578 42.6002 3.17578H50.0252C51.338 3.17578 52.5971 3.7279 53.5254 4.71069C54.4537 5.69347 54.9752 7.02641 54.9752 8.41628V50.3402V29.3783C54.9752 27.9884 55.4967 26.6555 56.425 25.6727C57.3533 24.6899 58.6124 24.1378 59.9252 24.1378H67.3502C68.663 24.1378 69.9221 24.6899 70.8504 25.6727C71.7787 26.6555 72.3002 27.9884 72.3002 29.3783V47.72" stroke="#8E8E8E" stroke-width="6" stroke-linecap="round" stroke-linejoin="round"/>
<path d="M3 39.8589C3 39.8589 20.325 52.9601 45.075 52.9601C69.825 52.9601 87.15 39.8589 87.15 39.8589L75.2255 107.985H14.9246L3 39.8589Z" stroke="#8E8E8E" stroke-width="6" stroke-linecap="round" stroke-linejoin="round"/>
<path d="M45.0751 87.0237C53.2765 87.0237 59.9251 83.5044 59.9251 79.163C59.9251 74.8216 53.2765 71.3022 45.0751 71.3022C36.8737 71.3022 30.2251 74.8216 30.2251 79.163C30.2251 83.5044 36.8737 87.0237 45.0751 87.0237Z" stroke="#8E8E8E" stroke-width="6"/>
</svg>
