<svg width="91" height="112" viewBox="0 0 91 112" fill="none" xmlns="http://www.w3.org/2000/svg">
<path d="M21.0249 47.8963V24.314C21.0249 22.9242 21.5464 21.5912 22.4747 20.6084C23.403 19.6257 24.6621 19.0735 25.9749 19.0735H33.3999C34.7127 19.0735 35.9718 19.6257 36.9001 20.6084C37.8284 21.5912 38.3499 22.9242 38.3499 24.314V50.5165V8.59255C38.3499 7.20268 38.8714 5.86974 39.7997 4.88696C40.728 3.90417 41.9871 3.35205 43.2999 3.35205H50.7249C52.0377 3.35205 53.2968 3.90417 54.2251 4.88696C55.1534 5.86974 55.6749 7.20268 55.6749 8.59255V50.5165V29.5545C55.6749 28.1647 56.1964 26.8317 57.1247 25.8489C58.053 24.8662 59.3121 24.314 60.6249 24.314H68.0499C69.3627 24.314 70.6218 24.8662 71.5501 25.8489C72.4784 26.8317 72.9999 28.1647 72.9999 29.5545V47.8963" stroke="#FDD741" stroke-width="6" stroke-linecap="round" stroke-linejoin="round"/>
<path d="M3.69971 40.0352C3.69971 40.0352 21.0247 53.1364 45.7747 53.1364C70.5247 53.1364 87.8497 40.0352 87.8497 40.0352L75.9252 108.162H15.6243L3.69971 40.0352Z" stroke="#FDD741" stroke-width="6" stroke-linecap="round" stroke-linejoin="round"/>
<path d="M45.7748 87.2C53.9762 87.2 60.6248 83.6806 60.6248 79.3393C60.6248 74.9979 53.9762 71.4785 45.7748 71.4785C37.5734 71.4785 30.9248 74.9979 30.9248 79.3393C30.9248 83.6806 37.5734 87.2 45.7748 87.2Z" stroke="#FDD741" stroke-width="6"/>
</svg>
