<svg width="110" height="98" viewBox="0 0 110 98" fill="none" xmlns="http://www.w3.org/2000/svg">
<path d="M11.805 97.4783C8.80753 97.4783 6.24149 96.4229 4.1069 94.3123C1.97232 92.2016 0.905029 89.6644 0.905029 86.7005V70.5338H109.905V86.7005C109.905 89.6644 108.838 92.2016 106.703 94.3123C104.569 96.4229 102.003 97.4783 99.005 97.4783H11.805ZM11.805 81.3116V86.7005H99.005V81.3116H11.805ZM55.405 57.0616C52.135 57.0616 49.5463 57.9598 47.6388 59.7561C45.7313 61.5523 42.2342 62.4505 37.1475 62.4505C32.0609 62.4505 28.6092 61.5523 26.7925 59.7561C24.9759 57.9598 22.4325 57.0616 19.1625 57.0616C15.8925 57.0616 13.3038 57.9598 11.3963 59.7561C9.48878 61.5523 5.9917 62.4505 0.905029 62.4505V51.6727C4.17503 51.6727 6.76378 50.7746 8.67128 48.9783C10.5788 47.182 14.0759 46.2838 19.1625 46.2838C24.2492 46.2838 27.7009 47.182 29.5175 48.9783C31.3342 50.7746 33.8775 51.6727 37.1475 51.6727C40.4175 51.6727 43.0063 50.7746 44.9138 48.9783C46.8213 47.182 50.3184 46.2838 55.405 46.2838C60.4917 46.2838 63.9888 47.182 65.8963 48.9783C67.8038 50.7746 70.3925 51.6727 73.6625 51.6727C76.9325 51.6727 79.4759 50.7746 81.2925 48.9783C83.1092 47.182 86.5609 46.2838 91.6475 46.2838C96.7342 46.2838 100.322 47.182 102.411 48.9783C104.5 50.7746 106.998 51.6727 109.905 51.6727V62.4505C104.818 62.4505 101.412 61.5523 99.6863 59.7561C97.9604 57.9598 95.4625 57.0616 92.1925 57.0616C88.9225 57.0616 86.2884 57.9598 84.29 59.7561C82.2917 61.5523 78.7492 62.4505 73.6625 62.4505C68.5759 62.4505 65.0788 61.5523 63.1713 59.7561C61.2638 57.9598 58.675 57.0616 55.405 57.0616ZM0.905029 38.2005V32.8116C0.905029 22.4829 5.83274 14.5118 15.6882 8.89841C25.5436 3.28498 38.7825 0.478271 55.405 0.478271C72.0275 0.478271 85.2665 3.28498 95.1219 8.89841C104.977 14.5118 109.905 22.4829 109.905 32.8116V38.2005H0.905029ZM55.405 11.256C44.1417 11.256 34.7177 12.6482 27.1332 15.4324C19.5486 18.2167 14.7117 22.2135 12.6225 27.4227H98.1875C96.0984 22.2135 91.2615 18.2167 83.6769 15.4324C76.0923 12.6482 66.6684 11.256 55.405 11.256Z" fill="#FDD741"/>
</svg>
