<svg width="17" height="17" viewBox="0 0 17 17" fill="none" xmlns="http://www.w3.org/2000/svg">
<path d="M1.5 8.81198C1.5 10.6453 2.2375 12.4035 3.55025 13.6998C4.86301 14.9961 6.64348 15.7244 8.5 15.7244C10.3565 15.7244 12.137 14.9961 13.4497 13.6998C14.7625 12.4035 15.5 10.6453 15.5 8.81198C15.5 6.9787 14.7625 5.22051 13.4497 3.92419C12.137 2.62786 10.3565 1.89959 8.5 1.89959C6.64348 1.89959 4.86301 2.62786 3.55025 3.92419C2.2375 5.22051 1.5 6.9787 1.5 8.81198ZM16.5 8.81198C16.5 10.9072 15.6571 12.9165 14.1569 14.398C12.6566 15.8796 10.6217 16.7119 8.5 16.7119C6.37827 16.7119 4.34344 15.8796 2.84315 14.398C1.34285 12.9165 0.5 10.9072 0.5 8.81198C0.5 6.71681 1.34285 4.70744 2.84315 3.22593C4.34344 1.74442 6.37827 0.912109 8.5 0.912109C10.6217 0.912109 12.6566 1.74442 14.1569 3.22593C15.6571 4.70744 16.5 6.71681 16.5 8.81198ZM8.646 5.84163C7.434 5.84163 6.719 6.75012 6.719 8.31232V9.35905C6.719 10.9104 7.422 11.7902 8.646 11.7902C9.625 11.7902 10.287 11.2116 10.375 10.39H11.67V10.4818C11.57 11.9117 10.316 12.9179 8.64 12.9179C6.549 12.9179 5.371 11.5987 5.371 9.36004V8.30047C5.371 6.06776 6.572 4.708 8.641 4.708C10.322 4.708 11.576 5.74881 11.67 7.24781V7.33471H10.375C10.287 6.46671 9.607 5.84163 8.646 5.84163Z" fill="#707070"/>
</svg>
