<svg width="840" height="471" viewBox="0 0 840 471" fill="none" xmlns="http://www.w3.org/2000/svg">
<path d="M309.626 387.265C305.943 416.047 292.404 442.38 277.96 467.747C277.483 468.61 276.991 469.461 276.488 470.325H126.367C123.331 469.538 120.334 468.675 117.349 467.747C100.394 462.596 84.3861 454.739 69.9489 444.481C14.7194 404.782 -6.5329 329.765 3.06629 262.547C9.03511 220.785 27.4058 178.147 63.179 155.655C82.067 143.758 106.329 139.891 128.072 144.312C128.641 144.415 129.209 144.544 129.79 144.66C148.497 148.862 165.163 159.303 174.646 176.123C191.699 206.349 181.545 243.793 173.16 277.434C164.801 311.076 160.267 351.342 184.529 376.154C176.519 352.631 184.426 324.571 203.559 308.665C218.015 296.665 238.144 292.167 256.502 295.892C258.259 296.266 259.99 296.691 261.695 297.207C265.817 298.411 269.79 300.071 273.542 302.156C302.158 318.1 313.747 354.822 309.626 387.265Z" fill="#F2F2F2"/>
<path d="M220.613 467.746C224.772 468.713 228.945 469.564 233.144 470.324H210.445C207.473 469.525 204.515 468.674 201.583 467.746C195.136 465.736 188.788 463.428 182.54 460.825C157.476 450.333 134.39 434.582 116.923 413.624C108.381 403.47 101.405 392.1 96.2265 379.892C90.6112 366.093 87.0425 351.551 85.6331 336.725C82.4677 306.306 85.6975 275.049 91.7306 245.172C97.9568 214.205 108.007 184.128 121.652 155.629C123.292 152.213 124.989 148.819 126.742 145.446C126.862 145.169 127.045 144.922 127.275 144.725C127.506 144.529 127.778 144.387 128.072 144.312C128.669 144.197 129.286 144.322 129.79 144.66C130.396 145.006 130.844 145.571 131.044 146.238C131.243 146.905 131.179 147.623 130.863 148.243C116.795 175.615 106.131 204.599 99.1074 234.551C92.2347 263.771 88.333 294.345 89.6635 324.39C90.9295 352.463 98.2811 380.072 114.959 403.028C130.191 423.987 151.223 440.511 174.491 451.763C189.218 458.793 204.689 464.154 220.613 467.746Z" fill="white"/>
<path d="M270.429 470.324H263.736C262.987 469.474 262.263 468.61 261.553 467.746C246.31 449.268 235.983 427.253 231.529 403.737C226.119 374.391 230.327 344.087 243.53 317.314C247.214 309.806 251.555 302.638 256.501 295.892C258.258 296.265 259.99 296.691 261.695 297.206C248.683 314.406 239.932 334.431 236.154 355.647C232.783 375.528 233.904 395.908 239.434 415.302C244.963 434.695 254.762 452.612 268.116 467.746C268.865 468.61 269.64 469.474 270.429 470.324Z" fill="white"/>
<path d="M516.177 273.991H392.178L390.863 235.954C390.806 234.305 391.108 232.663 391.748 231.142C392.388 229.621 393.351 228.256 394.57 227.141C395.79 226.027 397.236 225.189 398.811 224.686C400.386 224.182 402.052 224.026 403.693 224.226L475.853 233.042H475.861C486.559 233.071 496.809 237.329 504.366 244.884C511.923 252.438 516.17 262.674 516.177 273.347V273.991Z" fill="#FDD741"/>
<path d="M460.911 139.066H374.427C373.277 139.066 372.138 139.291 371.075 139.73C370.012 140.169 369.047 140.813 368.233 141.624C367.42 142.436 366.775 143.399 366.335 144.459C365.895 145.52 365.669 146.656 365.669 147.804V234.088C365.669 235.236 365.895 236.372 366.335 237.432C366.775 238.493 367.42 239.456 368.233 240.267C369.047 241.079 370.012 241.722 371.075 242.161C372.138 242.6 373.277 242.826 374.427 242.826H460.911C462.061 242.826 463.2 242.6 464.262 242.161C465.325 241.722 466.291 241.079 467.104 240.267C467.917 239.456 468.562 238.493 469.002 237.432C469.442 236.372 469.669 235.236 469.668 234.088V147.804C469.669 146.656 469.442 145.52 469.002 144.459C468.562 143.399 467.917 142.436 467.104 141.624C466.291 140.813 465.325 140.169 464.262 139.73C463.2 139.291 462.061 139.066 460.911 139.066Z" fill="#CCCCCC"/>
<path d="M441.433 203.586L400.6 211.519C398.178 211.987 395.669 211.477 393.623 210.102C391.578 208.726 390.162 206.597 389.688 204.181L386.549 188.1C386.08 185.684 386.591 183.18 387.97 181.139C389.349 179.098 391.483 177.686 393.904 177.213L434.737 169.28C437.159 168.812 439.668 169.322 441.714 170.698C443.76 172.073 445.175 174.202 445.649 176.618L448.788 192.699C449.257 195.115 448.746 197.619 447.367 199.66C445.988 201.701 443.854 203.113 441.433 203.586Z" fill="#3F3D56"/>
<path d="M433.263 184.588L402.102 190.643C401.532 190.753 400.941 190.634 400.459 190.31C399.978 189.986 399.645 189.485 399.534 188.916C399.423 188.347 399.543 187.758 399.868 187.278C400.192 186.797 400.695 186.465 401.265 186.354L432.426 180.3C432.996 180.189 433.587 180.309 434.069 180.633C434.55 180.957 434.883 181.458 434.994 182.027C435.105 182.595 434.985 183.185 434.661 183.665C434.336 184.146 433.833 184.478 433.263 184.588Z" fill="white"/>
<path d="M427.207 193.554L411.088 196.686C410.518 196.796 409.928 196.677 409.446 196.353C408.965 196.029 408.632 195.528 408.521 194.959C408.41 194.39 408.53 193.801 408.854 193.321C409.179 192.84 409.681 192.508 410.251 192.397L426.37 189.266C426.652 189.211 426.942 189.212 427.224 189.269C427.506 189.326 427.773 189.438 428.012 189.599C428.25 189.759 428.455 189.965 428.614 190.204C428.772 190.443 428.882 190.711 428.937 190.992C428.992 191.274 428.991 191.564 428.934 191.845C428.877 192.126 428.764 192.393 428.604 192.631C428.443 192.869 428.237 193.073 427.997 193.231C427.757 193.39 427.489 193.499 427.207 193.554Z" fill="white"/>
<path d="M469.668 147.804V159.272H365.669V147.804C365.669 146.656 365.895 145.52 366.335 144.459C366.775 143.399 367.42 142.436 368.233 141.624C369.047 140.813 370.012 140.169 371.075 139.73C372.138 139.291 373.277 139.066 374.427 139.066H460.911C462.061 139.066 463.2 139.291 464.262 139.73C465.325 140.169 466.291 140.813 467.104 141.624C467.917 142.436 468.562 143.399 469.002 144.459C469.442 145.52 469.669 146.656 469.668 147.804Z" fill="#B3B3B3"/>
<path d="M677.345 162.863C676.744 160.929 675.726 159.15 674.362 157.652C672.998 156.153 671.322 154.971 669.45 154.189C667.579 153.407 665.558 153.044 663.531 153.125C661.504 153.206 659.519 153.73 657.716 154.659L538.735 112.069L533.495 141.724L652.097 174.264C653.863 177.181 656.64 179.352 659.902 180.363C663.164 181.375 666.684 181.157 669.797 179.752C672.909 178.346 675.396 175.851 676.787 172.738C678.178 169.626 678.377 166.112 677.345 162.863Z" fill="#FFB8B8"/>
<path opacity="0.2" d="M677.345 162.863C676.744 160.929 675.726 159.15 674.362 157.652C672.998 156.153 671.322 154.971 669.45 154.189C667.579 153.407 665.558 153.044 663.531 153.125C661.504 153.206 659.519 153.73 657.716 154.659L538.735 112.069L533.495 141.724L652.097 174.264C653.863 177.181 656.64 179.352 659.902 180.363C663.164 181.375 666.684 181.157 669.797 179.752C672.909 178.346 675.396 175.851 676.787 172.738C678.178 169.626 678.377 166.112 677.345 162.863Z" fill="black"/>
<path d="M559.854 117.473L548.618 146.758C548.299 147.591 547.803 148.346 547.164 148.971C546.526 149.596 545.76 150.076 544.919 150.379C544.078 150.682 543.181 150.8 542.29 150.726C541.399 150.652 540.534 150.387 539.755 149.949L512.448 134.616C508.185 132.959 504.754 129.684 502.907 125.508C501.061 121.332 500.949 116.595 502.597 112.337C504.245 108.079 507.518 104.647 511.699 102.792C515.88 100.938 520.626 100.813 524.899 102.446L555.391 109.193C556.264 109.386 557.085 109.765 557.798 110.304C558.511 110.842 559.099 111.528 559.523 112.314C559.946 113.099 560.195 113.967 560.252 114.857C560.309 115.748 560.173 116.64 559.854 117.473Z" fill="#FDD741"/>
<path d="M686.71 189.979L644.077 209.314L649.674 230.338C660.483 270.936 663.352 313.232 658.123 354.914L689.294 361.409L715.133 295.673L706.089 220.914L686.71 189.979Z" fill="#FDD741"/>
<path d="M770.362 287.294C742.351 287.294 719.523 307.611 718.416 333.052H822.309C821.201 307.611 798.374 287.294 770.362 287.294Z" fill="#3F3D56"/>
<path d="M748.556 291.679C747.099 176.836 681.543 187.402 681.543 187.402C681.543 187.402 682.769 223.148 683.358 224.26C725.133 303.117 656.189 395.565 568.429 378.558C566.774 378.237 565.185 377.912 563.66 377.582C552.54 375.266 542.722 368.81 536.204 359.529C529.685 350.248 526.954 338.837 528.567 327.619C537.212 258.357 494.214 259.582 494.214 259.582H431.341L398.69 230.264C397.538 229.229 396.149 228.492 394.645 228.117C393.14 227.741 391.567 227.739 390.062 228.11C388.556 228.482 387.165 229.216 386.01 230.247C384.855 231.279 383.971 232.578 383.434 234.029L379.234 245.404C379.234 245.404 317.222 251.849 322.389 312.429H341.561C341.515 314.15 341.584 315.873 341.768 317.585L484.849 316.424C493.236 316.356 500.639 323.137 500.674 331.505C500.683 333.542 500.279 335.56 499.488 337.438C498.697 339.316 497.534 341.016 496.069 342.435C494.605 343.854 492.868 344.965 490.963 345.699C489.059 346.433 487.025 346.777 484.984 346.709L461.917 345.942C454.811 377.521 472.252 398.788 491.469 412.161C509.563 424.569 531.032 431.148 552.987 431.012H615.655C697.046 431.012 711.257 362.698 711.257 362.698C753.89 344.653 748.556 291.679 748.556 291.679Z" fill="#3F3D56"/>
<path d="M766.486 468.391C806.621 468.391 839.157 435.93 839.157 395.888C839.157 355.845 806.621 323.385 766.486 323.385C726.352 323.385 693.816 355.845 693.816 395.888C693.816 435.93 726.352 468.391 766.486 468.391Z" fill="#3F3D56"/>
<path d="M766.486 413.658C776.323 413.658 784.297 405.702 784.297 395.888C784.297 386.074 776.323 378.118 766.486 378.118C756.649 378.118 748.675 386.074 748.675 395.888C748.675 405.702 756.649 413.658 766.486 413.658Z" fill="white"/>
<path d="M399.582 468.391C445.781 468.391 483.234 431.025 483.234 384.932C483.234 338.839 445.781 301.473 399.582 301.473C353.382 301.473 315.93 338.839 315.93 384.932C315.93 431.025 353.382 468.391 399.582 468.391Z" fill="#3F3D56"/>
<path d="M399.581 405.387C410.905 405.387 420.084 396.229 420.084 384.932C420.084 373.634 410.905 364.476 399.581 364.476C388.258 364.476 379.079 373.634 379.079 384.932C379.079 396.229 388.258 405.387 399.581 405.387Z" fill="white"/>
<path d="M644.198 215.026L628.858 173.458C628.059 171.292 627.695 168.99 627.787 166.683C627.88 164.376 628.427 162.11 629.397 160.014C630.367 157.919 631.742 156.034 633.442 154.468C635.142 152.902 637.135 151.686 639.306 150.888L683.283 134.736C687.104 133.332 691.164 132.693 695.232 132.855C699.3 133.017 703.297 133.977 706.993 135.68C710.689 137.382 714.013 139.795 716.775 142.78C719.537 145.764 721.683 149.262 723.09 153.074C724.358 156.495 725.006 160.115 725.003 163.762C724.986 168.394 723.936 172.964 721.927 177.14C719.919 181.316 717.003 184.994 713.391 187.904C710.783 189.992 707.85 191.642 704.709 192.788L644.198 215.026Z" fill="#3F3D56"/>
<path d="M724.357 163.762C724.353 168.3 723.33 172.779 721.363 176.87C719.395 180.961 716.533 184.559 712.988 187.401C707.548 185.97 702.486 183.374 698.154 179.793C693.821 176.212 690.323 171.734 687.901 166.668C685.479 161.602 684.192 156.07 684.129 150.458C684.066 144.845 685.229 139.287 687.537 134.168C691.968 133.207 696.559 133.248 700.973 134.288C705.386 135.328 709.51 137.341 713.041 140.18C716.572 143.018 719.422 146.61 721.38 150.69C723.338 154.771 724.355 159.238 724.357 163.762Z" fill="#FDD741"/>
<path d="M333.371 320.807C343.36 320.807 351.458 310.997 351.458 298.895C351.458 286.793 343.36 276.983 333.371 276.983C323.382 276.983 315.284 286.793 315.284 298.895C315.284 310.997 323.382 320.807 333.371 320.807Z" fill="#FDD741"/>
<path d="M572.455 376.458H588.294L595.829 335.474L572.452 335.475L572.455 376.458Z" fill="#FFB8B8"/>
<path d="M568.415 371.299L599.606 371.298H599.608C602.218 371.298 604.803 371.811 607.215 372.807C609.626 373.804 611.818 375.265 613.664 377.106C615.509 378.948 616.974 381.134 617.973 383.54C618.972 385.947 619.486 388.525 619.486 391.13V391.774L568.416 391.776L568.415 371.299Z" fill="#2F2E41"/>
<path d="M590.839 359.637C590.655 359.637 590.47 359.628 590.284 359.61L568.364 358.018C567.478 357.936 566.622 357.652 565.863 357.188C565.104 356.723 564.462 356.092 563.986 355.341C563.511 354.59 563.215 353.74 563.12 352.857C563.026 351.974 563.137 351.08 563.443 350.247L592.778 284.492C592.987 283.905 593.073 283.282 593.029 282.661C592.986 282.041 592.814 281.435 592.524 280.884C592.235 280.326 591.832 279.836 591.339 279.445C590.847 279.054 590.277 278.771 589.668 278.616C575.873 275.018 540.482 265.439 509.845 254.232C496.719 249.43 488.452 242.49 485.274 233.606C481.084 221.894 487.282 211.212 487.548 210.764L487.756 210.413L516.585 213.027L547.838 215.679L616.327 252.321C622.066 255.417 626.425 260.557 628.536 266.716C630.648 272.875 630.356 279.601 627.72 285.555L596.144 356.199C595.687 357.222 594.943 358.091 594.002 358.701C593.06 359.311 591.962 359.636 590.839 359.637Z" fill="#2F2E41"/>
<path d="M521.598 82.9356C539.122 82.9356 553.328 68.762 553.328 51.2779C553.328 33.7938 539.122 19.6201 521.598 19.6201C504.073 19.6201 489.867 33.7938 489.867 51.2779C489.867 68.762 504.073 82.9356 521.598 82.9356Z" fill="#FFB8B8"/>
<path d="M563.411 380.325H579.25L586.786 339.341L563.409 339.342L563.411 380.325Z" fill="#FFB8B8"/>
<path d="M559.371 375.166L590.563 375.165H590.564C593.175 375.165 595.759 375.678 598.171 376.675C600.583 377.671 602.774 379.132 604.62 380.974C606.466 382.815 607.93 385.001 608.929 387.408C609.928 389.814 610.442 392.393 610.442 394.997V395.641L559.372 395.643L559.371 375.166Z" fill="#2F2E41"/>
<path d="M581.796 363.504C581.611 363.504 581.426 363.495 581.24 363.477L559.321 361.885C558.434 361.803 557.579 361.519 556.82 361.055C556.061 360.591 555.419 359.959 554.943 359.208C554.468 358.457 554.171 357.607 554.077 356.724C553.983 355.841 554.093 354.948 554.399 354.114L583.734 288.359C583.944 287.773 584.03 287.149 583.986 286.529C583.942 285.908 583.77 285.303 583.481 284.751C583.192 284.193 582.788 283.703 582.296 283.312C581.803 282.921 581.234 282.639 580.624 282.483C566.83 278.886 531.438 269.307 500.801 258.099C487.675 253.297 479.408 246.357 476.23 237.473C472.041 225.761 478.239 215.079 478.505 214.631L478.713 214.28L507.542 216.894L538.795 219.546L607.284 256.188C613.022 259.284 617.382 264.424 619.493 270.583C621.604 276.742 621.313 283.468 618.676 289.422L587.101 360.066C586.644 361.089 585.9 361.958 584.958 362.569C584.017 363.179 582.918 363.503 581.796 363.504Z" fill="#2F2E41"/>
<path d="M531.384 100.887L497.794 89.2861C497.794 89.2861 476.707 105.449 486.837 145.547C492.126 166.238 490.585 188.08 482.444 207.829C481.464 210.272 480.334 212.653 479.061 214.958C479.061 214.958 516.527 260.071 551.408 226.559L537.843 161.467C537.843 161.467 559.16 118.287 531.384 100.887Z" fill="#FDD741"/>
<path d="M525.537 84.0121C521.021 77.2679 517.457 67.9163 522.429 61.4995C527.337 55.1654 537.018 56.0986 544.535 53.2958C555.005 49.3921 561.077 37.1205 559.183 26.1305C557.289 15.1406 548.447 6.03021 537.913 2.30255C527.379 -1.42512 515.5 -0.212792 505.184 4.07984C492.486 9.36412 481.592 19.5862 477.025 32.5349C472.457 45.4836 474.899 61.0309 484.375 70.9836C494.534 81.6539 510.479 84.4976 525.229 84.325" fill="#2F2E41"/>
<path d="M496.021 26.4834C490.33 31.1054 481.648 29.0525 475.539 24.9961C469.431 20.9398 464.474 15.1637 457.865 11.9834C446.212 6.37655 432.125 10.1038 420.784 16.3144C409.444 22.5249 399.391 31.105 387.412 35.9787C375.434 40.8524 360.148 41.0933 351.077 31.8907C348.845 38.3429 348.663 45.3251 350.555 51.8846C352.447 58.4441 356.322 64.2615 361.65 68.5429C366.978 72.8244 373.501 75.3615 380.327 75.8079C387.154 76.2544 393.953 74.5886 399.796 71.0377C412.921 63.0612 420.171 46.3368 434.892 41.9343C443.038 39.4981 451.785 41.4602 460.019 43.5855C468.252 45.7107 476.837 48.0071 485.145 46.1978C493.454 44.3886 501.226 36.9392 500.169 28.5203L496.021 26.4834Z" fill="#2F2E41"/>
<path d="M675.766 161.574C674.931 159.729 673.701 158.089 672.162 156.77C670.623 155.45 668.813 154.484 666.859 153.938C664.905 153.392 662.855 153.28 660.854 153.611C658.852 153.941 656.947 154.705 655.273 155.849L531.934 128.23L530.401 158.304L652.121 175.995C654.234 178.674 657.258 180.485 660.62 181.087C663.983 181.69 667.45 181.04 670.364 179.263C673.279 177.485 675.438 174.703 676.434 171.442C677.43 168.182 677.192 164.671 675.766 161.574Z" fill="#FFB8B8"/>
<path d="M553.559 130.993L546.031 161.438C545.817 162.304 545.418 163.114 544.862 163.812C544.306 164.511 543.605 165.082 542.808 165.486C542.011 165.89 541.135 166.118 540.242 166.154C539.348 166.19 538.457 166.034 537.63 165.695L508.636 153.84C504.198 152.724 500.384 149.897 498.033 145.979C495.681 142.061 494.984 137.372 496.093 132.942C497.202 128.511 500.028 124.701 503.95 122.346C507.872 119.992 512.57 119.286 517.013 120.383L548.107 123.325C548.997 123.41 549.859 123.685 550.633 124.131C551.407 124.578 552.075 125.186 552.593 125.914C553.11 126.641 553.464 127.472 553.631 128.348C553.798 129.225 553.773 130.127 553.559 130.993Z" fill="#FDD741"/>
<path d="M661.518 185.468C666.513 185.468 670.561 181.428 670.561 176.445C670.561 171.462 666.513 167.423 661.518 167.423C656.523 167.423 652.475 171.462 652.475 176.445C652.475 181.428 656.523 185.468 661.518 185.468Z" fill="#FDD741"/>
</svg>
