<svg width="29" height="29" viewBox="0 0 29 29" fill="none" xmlns="http://www.w3.org/2000/svg">
<path d="M22.5654 28.7475C22.3303 28.7469 22.0989 28.6886 21.8911 28.5775L14.5 24.6499L7.1089 28.5775C6.86959 28.7042 6.6 28.7609 6.33055 28.741C6.06109 28.7212 5.80248 28.6256 5.58387 28.4652C5.36526 28.3047 5.19535 28.0858 5.0933 27.8329C4.99124 27.5801 4.9611 27.3035 5.00628 27.0343L6.41721 18.7159L0.437053 12.8244C0.243597 12.6335 0.106801 12.3917 0.0421139 12.1264C-0.0225737 11.8611 -0.012577 11.5828 0.0709752 11.3229C0.154527 11.063 0.308307 10.8319 0.51495 10.6557C0.721593 10.4795 0.972868 10.3651 1.2404 10.3256L9.50445 9.11216L13.2007 1.54408C13.3339 1.31523 13.5239 1.12549 13.7519 0.993658C13.9799 0.861829 14.238 0.79248 14.5007 0.79248C14.7634 0.79248 15.0216 0.861829 15.2496 0.993658C15.4776 1.12549 15.6676 1.31523 15.8007 1.54408L19.4956 9.11216L27.7596 10.3256C28.0271 10.3651 28.2784 10.4795 28.485 10.6557C28.6917 10.8319 28.8455 11.063 28.929 11.3229C29.0126 11.5828 29.0226 11.8611 28.9579 12.1264C28.8932 12.3917 28.7564 12.6335 28.5629 12.8244L22.5828 18.7159L23.9952 27.0343C24.0308 27.2446 24.0207 27.4602 23.9653 27.6661C23.91 27.872 23.8109 28.0632 23.6749 28.2263C23.5388 28.3895 23.3692 28.5206 23.1778 28.6107C22.9865 28.7007 22.7765 28.7474 22.5654 28.7475Z" fill="#FDD741"/>
</svg>
