<svg width="70" height="70" viewBox="0 0 70 70" fill="none" xmlns="http://www.w3.org/2000/svg">
<path d="M24.7873 13.3309C21.404 13.461 18.3454 14.6665 16.7101 16.3011C16.5295 16.4813 16.315 16.6243 16.0791 16.7218C15.8431 16.8193 15.5901 16.8694 15.3348 16.8693C15.0794 16.8692 14.8265 16.8189 14.5906 16.7212C14.3546 16.6236 14.1403 16.4805 13.9598 16.3001C13.7792 16.1197 13.6361 15.9056 13.5384 15.67C13.4407 15.4344 13.3905 15.1819 13.3906 14.9269C13.3907 14.6719 13.4411 14.4195 13.5389 14.1839C13.6367 13.9484 13.7801 13.7344 13.9607 13.5541C16.4826 11.0363 20.5893 9.60747 24.6356 9.45023C28.7092 9.29298 33.1561 10.4053 36.271 13.5153C36.6356 13.8796 36.8403 14.3735 36.8402 14.8885C36.84 15.4035 36.6349 15.8973 36.27 16.2613C35.9052 16.6253 35.4104 16.8297 34.8947 16.8295C34.3789 16.8293 33.8843 16.6246 33.5197 16.2603C31.4002 14.1423 28.1453 13.1989 24.7873 13.3289" fill="#8E8E8E"/>
<path fill-rule="evenodd" clip-rule="evenodd" d="M44.5972 41.6119C48.4524 37.063 50.5638 31.2948 50.5549 25.336C50.5549 11.3975 39.2384 0.0991211 25.2775 0.0991211C11.3165 0.0991211 0 11.3975 0 25.336C0 39.2745 11.3165 50.5729 25.2775 50.5729C31.4899 50.5729 37.1773 48.3365 41.5795 44.6248L40.8328 48.9111L55.4432 63.4981L63.5009 55.4533L48.8905 40.8664L44.5972 41.6119ZM25.2775 44.749C36.0165 44.749 44.7217 36.0578 44.7217 25.336C44.7217 14.6142 36.0165 5.92302 25.2775 5.92302C14.5384 5.92302 5.83326 14.6142 5.83326 25.336C5.83326 36.0578 14.5384 44.749 25.2775 44.749Z" fill="#8E8E8E"/>
<path d="M58.1924 66.2435L66.2501 58.1987L68.8867 60.8311C70.3703 62.3123 70.3703 64.7137 68.8867 66.193L66.1995 68.8759C64.7159 70.3571 62.3107 70.3571 60.829 68.8759L58.1924 66.2435Z" fill="#8E8E8E"/>
</svg>
