<svg width="89" height="110" viewBox="0 0 89 110" fill="none" xmlns="http://www.w3.org/2000/svg">
<path d="M44.6104 109.949L21.7621 63.0549C16.6269 65.0658 11.7151 64.3618 7.02684 60.943C2.33859 57.5242 -0.00369008 52.7675 4.36352e-06 46.6728C4.36352e-06 42.9117 1.11388 39.3918 3.34163 36.1131C5.56938 32.8382 9.04585 30.4851 13.771 29.0538C14.9348 19.9837 18.4815 12.8739 24.411 7.72435C30.3406 2.57478 36.9814 0 44.3333 0C51.6853 0 58.326 2.57478 64.2556 7.72435C70.1852 12.8739 73.7319 19.9857 74.8956 29.0596C79.6245 30.4871 83.101 32.8401 85.325 36.1189C87.5528 39.3938 88.6667 42.9117 88.6667 46.6728C88.6667 52.8453 86.4131 57.5651 81.9058 60.8321C77.3986 64.0992 72.5626 64.8382 67.3978 63.0491L44.6104 109.949ZM16.625 58.341C18.0104 58.341 19.3737 58.0979 20.7148 57.6117C22.0558 57.1255 23.2787 56.2991 24.3833 55.1322L27.4313 51.9235L31.0333 54.2571C32.9729 55.6184 35.0751 56.6394 37.3398 57.32C39.6044 58.0007 41.9356 58.341 44.3333 58.341C46.731 58.341 49.0641 58.0007 51.3325 57.32C53.6008 56.6394 55.7011 55.6184 57.6333 54.2571L61.2354 51.9235L64.2833 55.1322C65.3917 56.2991 66.6164 57.1255 67.9575 57.6117C69.2985 58.0979 70.66 58.341 72.0417 58.341C75.0896 58.341 77.6997 57.1995 79.872 54.9164C82.0444 52.6333 83.1287 49.8854 83.125 46.6728C83.125 43.7557 82.2476 41.2043 80.4927 39.0185C78.7378 36.8326 76.475 35.4947 73.7042 35.0046L69.5479 34.4212L69.2708 29.7539C68.809 23.0447 66.1767 17.3817 61.374 12.765C56.5712 8.14829 50.891 5.83799 44.3333 5.8341C37.7757 5.83021 32.0955 8.14051 27.2927 12.765C22.4899 17.3895 19.8576 23.0525 19.3958 29.7539L19.1188 34.4212L14.9625 35.2963C12.1917 35.8797 9.92882 37.1924 8.17396 39.2343C6.4191 41.2763 5.54167 43.7557 5.54167 46.6728C5.54167 49.8815 6.62784 52.6294 8.80017 54.9164C10.9725 57.2033 13.5808 58.3449 16.625 58.341ZM44.6104 97.1377L62.3438 60.6746L60.8475 59.3328C57.9954 60.8691 55.1507 62.0612 52.3133 62.9091C49.4834 63.7531 46.8234 64.1751 44.3333 64.1751C42.1241 64.1751 39.6248 63.8095 36.8355 63.0783C34.0462 62.3432 31.2014 61.0927 28.3013 59.327L26.8161 60.6746L44.6104 97.1377Z" fill="#8E8E8E"/>
</svg>
