<svg width="70" height="70" viewBox="0 0 70 70" fill="none" xmlns="http://www.w3.org/2000/svg">
<path fill-rule="evenodd" clip-rule="evenodd" d="M52.2244 3.05242C51.5293 1.94347 50.5052 1.07849 49.2947 0.57789C48.0842 0.0772888 46.7475 -0.0340276 45.4706 0.259439L36.4084 2.33782C35.4797 2.55095 34.5146 2.55095 33.5859 2.33782L24.5237 0.259439C23.2469 -0.0340276 21.9101 0.0772888 20.6996 0.57789C19.4891 1.07849 18.465 1.94347 17.7699 3.05242L12.8305 10.9231C12.3265 11.7283 11.6461 12.4076 10.8397 12.9159L2.95685 17.8477C1.8481 18.5411 0.983056 19.5619 0.48179 20.7685C-0.0194754 21.9751 -0.132099 23.3076 0.159553 24.581L2.24114 33.6393C2.45383 34.565 2.45383 35.5268 2.24114 36.4524L0.159553 45.5057C-0.133232 46.7799 -0.0211757 48.1134 0.480144 49.3211C0.981463 50.5287 1.84714 51.5504 2.95685 52.2441L10.8397 57.1759C11.6461 57.6791 12.3265 58.3585 12.8356 59.1636L17.7749 67.0343C19.1963 69.3039 21.9079 70.4262 24.5237 69.8273L33.5859 67.7489C34.5146 67.5358 35.4797 67.5358 36.4084 67.7489L45.4757 69.8273C46.7518 70.1196 48.0874 70.0077 49.2969 69.5072C50.5064 69.0066 51.5296 68.1423 52.2244 67.0343L57.1638 59.1636C57.6678 58.3585 58.3482 57.6791 59.1547 57.1759L67.0425 52.2441C68.1523 51.5494 69.0176 50.5266 69.518 49.3179C70.0185 48.1093 70.1292 46.775 69.8348 45.5007L67.7582 36.4524C67.5448 35.5251 67.5448 34.5616 67.7582 33.6343L69.8398 24.581C70.1331 23.3074 70.0218 21.9742 69.5214 20.7666C69.021 19.559 68.1564 18.5371 67.0476 17.8426L59.1597 12.9109C58.3544 12.4067 57.6738 11.7272 57.1688 10.9231L52.2244 3.05242ZM49.6892 23.8211C50.001 23.2488 50.0782 22.578 49.9047 21.9499C49.7312 21.3219 49.3205 20.7855 48.7589 20.4537C48.1974 20.1218 47.5288 20.0204 46.8939 20.1707C46.259 20.321 45.7072 20.7114 45.3547 21.2596L32.1747 43.533L24.2163 35.924C23.9802 35.682 23.6977 35.4899 23.3856 35.3592C23.0735 35.2285 22.7383 35.1619 22.3999 35.1634C22.0615 35.1649 21.7269 35.2344 21.416 35.3678C21.1051 35.5012 20.8242 35.6957 20.5903 35.9398C20.3563 36.1839 20.174 36.4726 20.0541 36.7885C19.9343 37.1045 19.8794 37.4414 19.8928 37.779C19.9061 38.1166 19.9875 38.4481 20.1319 38.7536C20.2764 39.0592 20.481 39.3325 20.7335 39.5574L30.9852 49.3656C31.2596 49.6275 31.5897 49.8242 31.9509 49.9409C32.312 50.0576 32.695 50.0913 33.071 50.0396C33.4471 49.9878 33.8066 49.8519 34.1227 49.6419C34.4387 49.432 34.7032 49.1534 34.8964 48.8271L49.6892 23.8211Z" fill="#8E8E8E"/>
</svg>
