<svg width="84" height="124" viewBox="0 0 84 124" fill="none" xmlns="http://www.w3.org/2000/svg">
<path d="M8.54998 38.2539L18.2624 110.407C18.6394 113.231 19.9733 115.813 22.0155 117.672C24.0578 119.532 26.669 120.542 29.3624 120.513H54.5593C57.2527 120.542 59.8639 119.532 61.9061 117.672C63.9484 115.813 65.2823 113.231 65.6592 110.407L75.1497 38.2539M3 38.2539H80.6997" stroke="#FDD741" stroke-width="6" stroke-linecap="round" stroke-linejoin="round"/>
<path d="M14.0996 79.3839C18.4938 77.4349 23.2104 76.4313 27.9745 76.4313C32.7387 76.4313 37.4553 77.4349 41.8495 79.3839C46.2437 81.3328 50.9602 82.3365 55.7244 82.3365C60.4886 82.3365 65.2052 81.3328 69.5994 79.3839M41.8495 38.2541L47.3995 3H58.4994" stroke="#FDD741" stroke-width="6" stroke-linecap="round" stroke-linejoin="round"/>
</svg>
