<svg width="101" height="99" viewBox="0 0 101 99" fill="none" xmlns="http://www.w3.org/2000/svg">
<path d="M14.429 39.9589H86.3537C87.4312 39.9649 88.4962 39.7073 89.4702 39.2053C90.4441 38.7033 91.3021 37.9696 91.981 37.0584C92.6598 36.1472 93.142 35.0816 93.3922 33.9404C93.6424 32.7991 93.6541 31.6113 93.4265 30.4644C90.0835 13.2588 71.9876 0.766113 50.3914 0.766113C28.7951 0.766113 10.6992 13.2588 7.35624 30.4644C7.12859 31.6113 7.14029 32.7991 7.39048 33.9404C7.64066 35.0816 8.12294 36.1472 8.80176 37.0584C9.48057 37.9696 10.3386 38.7033 11.3125 39.2053C12.2865 39.7073 13.3515 39.9649 14.429 39.9589ZM50.3914 8.60467C68.3073 8.60467 83.7801 18.7017 86.3537 32.1203H14.429L14.3975 32.086C17.0026 18.7017 32.4754 8.60467 50.3914 8.60467ZM95.9505 63.7097L77.4452 71.0584L60.7396 63.7538C59.8817 63.3804 58.9249 63.3804 58.067 63.7538L41.4199 71.0094L24.7458 63.7538C23.9249 63.3967 23.012 63.381 22.1812 63.7097L2.38459 71.5483C1.5479 71.9493 0.882685 72.682 0.523973 73.5975C0.165262 74.5131 0.139931 75.543 0.453121 76.4782C0.766311 77.4133 1.39456 78.1837 2.21034 78.6329C3.02612 79.0821 3.96831 79.1765 4.84567 78.8969L10.7981 76.5503V79.1517C10.7981 84.349 12.6942 89.3334 16.0693 93.0084C19.4444 96.6835 24.022 98.7481 28.7951 98.7481H71.9876C76.7607 98.7481 81.3383 96.6835 84.7134 93.0084C88.0885 89.3334 89.9846 84.349 89.9846 79.1517V74.4143L98.4116 71.078C98.8842 70.9274 99.3233 70.6728 99.7019 70.3301C100.08 69.9873 100.39 69.5636 100.613 69.0852C100.835 68.6068 100.965 68.0838 100.994 67.5486C101.023 67.0134 100.951 66.4774 100.782 65.9737C100.613 65.4701 100.352 65.0094 100.013 64.6203C99.6743 64.2312 99.2659 63.9219 98.813 63.7115C98.3601 63.5012 97.8724 63.3942 97.3801 63.3973C96.8877 63.4003 96.4012 63.5133 95.9505 63.7293V63.7097ZM82.7858 79.1517C82.7858 82.2701 81.6481 85.2607 79.6231 87.4657C77.598 89.6708 74.8515 90.9095 71.9876 90.9095H28.7951C25.9312 90.9095 23.1847 89.6708 21.1596 87.4657C19.1346 85.2607 17.9969 82.2701 17.9969 79.1517V73.7039L23.3375 71.5875L40.0431 78.8724C40.901 79.2459 41.8578 79.2459 42.7157 78.8724L59.3628 71.6169L76.01 78.8724C76.8308 79.2295 77.7437 79.2452 78.5745 78.9165L82.7453 77.2655L82.7858 79.1517ZM0 51.7167C0 50.6773 0.379219 49.6804 1.05423 48.9454C1.72925 48.2104 2.64477 47.7975 3.59938 47.7975H97.1833C98.1379 47.7975 99.0535 48.2104 99.7285 48.9454C100.403 49.6804 100.783 50.6773 100.783 51.7167C100.783 52.7562 100.403 53.7531 99.7285 54.4881C99.0535 55.2231 98.1379 55.636 97.1833 55.636H3.59938C2.64477 55.636 1.72925 55.2231 1.05423 54.4881C0.379219 53.7531 0 52.7562 0 51.7167Z" fill="#FDD741"/>
</svg>
