<svg width="78" height="57" viewBox="0 0 78 57" fill="none" xmlns="http://www.w3.org/2000/svg">
<path d="M59.5715 51.0264C62.4792 51.0264 64.8263 48.7034 64.8263 45.8258C64.8263 42.9481 62.4792 40.6251 59.5715 40.6251C56.6638 40.6251 54.3166 42.9481 54.3166 45.8258C54.3166 48.7034 56.6638 51.0264 59.5715 51.0264ZM64.8263 19.8225H56.0683V28.4902H71.6927L64.8263 19.8225ZM17.5327 51.0264C20.4404 51.0264 22.7876 48.7034 22.7876 45.8258C22.7876 42.9481 20.4404 40.6251 17.5327 40.6251C14.6251 40.6251 12.2779 42.9481 12.2779 45.8258C12.2779 48.7034 14.6251 51.0264 17.5327 51.0264ZM66.5779 14.6218L77.0876 28.4902V45.8258H70.0812C70.0812 51.5811 65.3869 56.2271 59.5715 56.2271C53.7561 56.2271 49.0618 51.5811 49.0618 45.8258H28.0424C28.0424 51.5811 23.3481 56.2271 17.5327 56.2271C11.7174 56.2271 7.02306 51.5811 7.02306 45.8258H0.0166016V7.68762C0.0166016 3.83914 3.13448 0.753418 7.02306 0.753418H56.0683V14.6218H66.5779ZM7.02306 7.68762V38.8915H9.68551C11.6123 36.7766 14.4149 35.4244 17.5327 35.4244C20.6506 35.4244 23.4532 36.7766 25.38 38.8915H49.0618V7.68762H7.02306Z" fill="#8E8E8E"/>
</svg>
