<svg width="106" height="99" viewBox="0 0 106 99" fill="none" xmlns="http://www.w3.org/2000/svg">
<path d="M15.2545 38.9783H91.5326C92.5349 38.9847 93.5256 38.7547 94.4315 38.3053C95.3374 37.856 96.1352 37.1988 96.7657 36.3824C97.3963 35.5661 97.8435 34.6115 98.0741 33.5895C98.3048 32.5674 98.3131 31.5041 98.0983 30.4783C94.6437 13.3933 75.8437 0.978271 53.3936 0.978271C30.9434 0.978271 12.1435 13.3933 8.68886 30.4783C8.47407 31.5041 8.48232 32.5674 8.71299 33.5895C8.94366 34.6115 9.39085 35.5661 10.0214 36.3824C10.652 37.1988 11.4498 37.856 12.3556 38.3053C13.2615 38.7547 14.2523 38.9847 15.2545 38.9783ZM14.3002 31.7383C17.1297 17.6233 33.9495 6.97827 53.3936 6.97827C72.8377 6.97827 89.6574 17.6233 92.5203 31.7383C92.5557 31.888 92.5576 32.0443 92.5258 32.1949C92.4939 32.3455 92.4293 32.4864 92.3369 32.6065C92.2445 32.7265 92.1268 32.8226 91.993 32.8871C91.8593 32.9516 91.7132 32.9828 91.566 32.9783H15.2545C15.1074 32.9828 14.9612 32.9516 14.8275 32.8871C14.6938 32.8226 14.5761 32.7265 14.4837 32.6065C14.3913 32.4864 14.3266 32.3455 14.2948 32.1949C14.263 32.0443 14.2648 31.888 14.3002 31.7383ZM102.063 65.1583L82.0706 72.7683L64.0007 65.1933C63.3177 64.9067 62.5556 64.9067 61.8726 65.1933L43.8505 72.7483L25.8283 65.1933C25.1748 64.9189 24.4478 64.9064 23.7861 65.1583L2.79121 73.1583C2.15819 73.399 1.62642 73.8659 1.28939 74.4768C0.952351 75.0878 0.831624 75.8036 0.948428 76.4986C1.06523 77.1936 1.41209 77.8232 1.92803 78.2767C2.44396 78.7302 3.09595 78.9786 3.76938 78.9783C4.10287 78.9774 4.43374 78.9165 4.74755 78.7983L12.382 75.8983V79.9783C12.382 85.0174 14.2924 89.8501 17.6928 93.4133C21.0931 96.9765 25.7051 98.9783 30.514 98.9783H76.3209C81.1298 98.9783 85.7417 96.9765 89.1421 93.4133C92.5425 89.8501 94.4528 85.0174 94.4528 79.9783V74.4433L104.02 70.7983C104.734 70.5264 105.315 69.9686 105.636 69.2475C105.957 68.5265 105.992 67.7012 105.733 66.9533C105.473 66.2054 104.941 65.5961 104.253 65.2594C103.565 64.9228 102.777 64.8864 102.063 65.1583ZM88.7031 79.9783C88.7031 83.4261 87.396 86.7327 85.0694 89.1707C82.7429 91.6086 79.5873 92.9783 76.297 92.9783H30.4901C27.1998 92.9783 24.0443 91.6086 21.7177 89.1707C19.3911 86.7327 18.0841 83.4261 18.0841 79.9783V73.7183L24.7165 71.1883L42.7864 78.7633C43.4694 79.0498 44.2315 79.0498 44.9145 78.7633L62.9367 71.2083L80.9589 78.7633C81.6123 79.0377 82.3394 79.0501 83.0011 78.7983L88.7031 76.6233V79.9783ZM0.906445 51.9783C0.906445 51.1826 1.20807 50.4196 1.74498 49.857C2.28188 49.2943 3.01008 48.9783 3.76938 48.9783H103.018C103.777 48.9783 104.505 49.2943 105.042 49.857C105.579 50.4196 105.881 51.1826 105.881 51.9783C105.881 52.7739 105.579 53.537 105.042 54.0996C104.505 54.6622 103.777 54.9783 103.018 54.9783H3.76938C3.01008 54.9783 2.28188 54.6622 1.74498 54.0996C1.20807 53.537 0.906445 52.7739 0.906445 51.9783Z" fill="#8E8E8E"/>
</svg>
