<svg width="101" height="99" viewBox="0 0 101 99" fill="none" xmlns="http://www.w3.org/2000/svg">
<path d="M14.429 40.1547H86.3537C87.4312 40.1607 88.4962 39.9031 89.4702 39.4011C90.4441 38.8991 91.3021 38.1654 91.981 37.2542C92.6598 36.343 93.142 35.2774 93.3922 34.1362C93.6424 32.9949 93.6541 31.8071 93.4265 30.6602C90.0835 13.4546 71.9876 0.961914 50.3914 0.961914C28.7951 0.961914 10.6992 13.4546 7.35624 30.6602C7.12859 31.8071 7.14029 32.9949 7.39048 34.1362C7.64066 35.2774 8.12294 36.343 8.80176 37.2542C9.48057 38.1654 10.3386 38.8991 11.3125 39.4011C12.2865 39.9031 13.3515 40.1607 14.429 40.1547ZM50.3914 8.80047C68.3073 8.80047 83.7801 18.8975 86.3537 32.3161H14.429L14.3975 32.2818C17.0026 18.8975 32.4754 8.80047 50.3914 8.80047ZM95.9505 63.9055L77.4452 71.2542L60.7396 63.9496C59.8817 63.5762 58.9249 63.5762 58.067 63.9496L41.4199 71.2052L24.7458 63.9496C23.9249 63.5925 23.012 63.5768 22.1812 63.9055L2.38459 71.7441C1.5479 72.1451 0.882685 72.8778 0.523973 73.7933C0.165262 74.7089 0.139931 75.7388 0.453121 76.674C0.766311 77.6091 1.39456 78.3795 2.21034 78.8287C3.02612 79.2779 3.96831 79.3723 4.84567 79.0927L10.7981 76.7461V79.3475C10.7981 84.5448 12.6942 89.5292 16.0693 93.2042C19.4444 96.8793 24.022 98.9439 28.7951 98.9439H71.9876C76.7607 98.9439 81.3383 96.8793 84.7134 93.2042C88.0885 89.5292 89.9846 84.5448 89.9846 79.3475V74.6101L98.4116 71.2738C98.8842 71.1232 99.3233 70.8686 99.7019 70.5259C100.08 70.1831 100.39 69.7594 100.613 69.281C100.835 68.8026 100.965 68.2796 100.994 67.7444C101.023 67.2092 100.951 66.6732 100.782 66.1695C100.613 65.6659 100.352 65.2052 100.013 64.8161C99.6743 64.427 99.2659 64.1177 98.813 63.9073C98.3601 63.697 97.8724 63.59 97.3801 63.5931C96.8877 63.5961 96.4012 63.7091 95.9505 63.9251V63.9055ZM82.7858 79.3475C82.7858 82.4659 81.6481 85.4565 79.6231 87.6615C77.598 89.8666 74.8515 91.1053 71.9876 91.1053H28.7951C25.9312 91.1053 23.1847 89.8666 21.1596 87.6615C19.1346 85.4565 17.9969 82.4659 17.9969 79.3475V73.8997L23.3375 71.7833L40.0431 79.0682C40.901 79.4417 41.8578 79.4417 42.7157 79.0682L59.3628 71.8127L76.01 79.0682C76.8308 79.4253 77.7437 79.441 78.5745 79.1123L82.7453 77.4613L82.7858 79.3475ZM0 51.9125C0 50.8731 0.379219 49.8762 1.05423 49.1412C1.72925 48.4062 2.64477 47.9933 3.59938 47.9933H97.1833C98.1379 47.9933 99.0535 48.4062 99.7285 49.1412C100.403 49.8762 100.783 50.8731 100.783 51.9125C100.783 52.952 100.403 53.9489 99.7285 54.6839C99.0535 55.4189 98.1379 55.8318 97.1833 55.8318H3.59938C2.64477 55.8318 1.72925 55.4189 1.05423 54.6839C0.379219 53.9489 0 52.952 0 51.9125Z" fill="#8E8E8E"/>
</svg>
