<svg width="900" height="740" viewBox="0 0 900 740" fill="none" xmlns="http://www.w3.org/2000/svg">
<path d="M485.541 322.747C484.164 329.551 482.514 336.285 480.588 342.95C480.38 343.724 480.146 344.486 479.913 345.26H453.136C450.855 345.263 448.669 346.115 447.056 347.631C445.444 349.147 444.536 351.202 444.534 353.346V425.102C443.723 426.523 442.899 427.932 442.076 429.341C437.824 436.619 433.4 443.815 428.878 450.919C355.138 566.38 252.292 663 129.418 732.248L136.693 716.816C134.026 716.643 131.348 716.47 128.681 716.296C70.6178 712.565 12.3575 708.43 -44.3421 696.163C-103.659 683.329 -161.685 661.07 -208.173 624.164C-254.673 587.246 -288.762 534.527 -293.493 477.487C-295.07 457.884 -292.961 438.173 -287.262 419.257C-276.363 382.848 -252.547 350.089 -218.188 330.706C-164.217 300.268 -93.8155 306.471 -36.9197 331.792C19.964 357.1 66.2676 398.997 111.477 440.165C65.8314 366.587 2.27768 304.23 -73.9696 258.21C-99.235 243.009 -126.048 229.471 -147.529 209.776C-168.997 190.093 -184.837 162.497 -181.04 134.532C-176.727 102.812 -149.089 78.7395 -121.404 60.1767C-110.344 52.7609 -98.9278 45.7262 -87.1552 39.2575C-53.9395 20.9604 -18.0075 7.15673 19.9395 2.03955C71.3426 -4.90272 126.863 5.63198 166.272 37.4209C210.67 73.2411 228.882 131.009 227.149 186.27C254.503 148.89 296.69 120.278 344.333 119.065C393.794 117.817 440.811 147.192 465.584 187.459C490.346 227.715 494.794 277.062 485.541 322.747Z" fill="#E6E6E6"/>
<path d="M172.036 477.46C200.983 475.068 227.723 472.274 255.773 464.827C282.962 457.609 309.125 445.525 328.481 425.795C349.299 404.574 360.537 377.014 368.466 349.579C372.887 334.283 376.519 318.773 379.946 303.258C383.665 286.424 386.969 269.515 389.859 252.532C395.611 218.728 399.717 184.723 402.178 150.52C402.476 146.369 402.748 142.215 402.996 138.061C403.15 135.498 398.901 135.506 398.747 138.061C396.726 171.775 393.089 205.358 387.838 238.81C382.655 271.676 376.025 304.4 367.612 336.677C360.485 364.02 351.257 391.791 332.978 414.553C315.838 435.899 291.081 449.847 264.35 458.187C237.149 466.674 208.469 470.062 180.045 472.582C176.558 472.891 175.525 473.185 172.036 473.473C169.334 473.697 169.309 477.685 172.036 477.46Z" fill="white"/>
<path d="M-270.955 392.008C-234.451 393.915 -198.318 399.913 -163.321 409.874C-128.309 419.815 -94.6627 433.611 -63.0805 450.975C-32.564 467.768 -4.23441 487.86 21.3324 510.845C46.1454 533.165 68.2597 558.004 87.2713 584.907C106.369 611.878 122.197 640.781 134.456 671.074C135.951 674.782 137.391 678.509 138.776 682.254C139.671 684.67 143.775 683.631 142.871 681.191C131.401 650.258 116.281 620.635 97.7942 592.88C79.3112 565.123 57.6192 539.38 33.1156 516.125C8.2196 492.509 -19.4881 471.68 -49.4569 454.052C-112.381 417.129 -183.706 394.792 -257.573 388.876C-262.029 388.524 -266.49 388.235 -270.955 388.008C-273.686 387.867 -273.677 391.867 -270.955 392.008Z" fill="white"/>
<path d="M-86.518 43.8238C-63.1365 50.806 -40.974 60.975 -20.74 74.0052C-0.0640793 87.4106 18.7926 103.135 35.4123 120.829C52.9261 139.442 68.4969 159.591 81.9104 180.998C96.1379 203.601 108.498 227.196 118.881 251.574C129.572 276.603 138.564 302.242 145.804 328.338C153.163 354.743 158.91 381.521 163.02 408.541C167.108 435.275 169.582 462.204 170.43 489.2C171.285 515.014 170.472 540.853 167.996 566.575C165.732 590.571 161.597 614.38 155.624 637.809C150.32 658.97 142.845 679.598 133.303 699.405C131.093 703.901 128.748 708.334 126.268 712.705C124.981 714.973 128.652 716.993 129.941 714.721C140.485 695.802 148.905 675.905 155.064 655.35C161.974 632.468 166.983 609.117 170.046 585.508C173.441 559.893 175.094 534.102 174.996 508.289C174.935 481.172 173.216 454.08 169.847 427.148C166.477 399.879 161.473 372.81 154.86 346.07C148.262 319.287 139.894 292.915 129.802 267.109C120.076 242.127 108.43 217.841 94.957 194.443C82.1248 172.116 67.1705 150.923 50.2766 131.122C34.2326 112.269 15.9158 95.2255 -4.30723 80.3321C-23.8077 66.014 -45.3563 54.3429 -68.3197 45.6619C-73.9312 43.5647 -79.6204 41.6681 -85.3872 39.9721C-88.0047 39.1988 -89.1247 43.0537 -86.518 43.8238Z" fill="white"/>
<path d="M166 739.055C333.895 739.055 470 733.831 470 727.386C470 720.941 333.895 715.717 166 715.717C-1.89456 715.717 -138 720.941 -138 727.386C-138 733.831 -1.89456 739.055 166 739.055Z" fill="#E6E6E6"/>
<path d="M434.557 366.228C434.406 366.851 434.308 367.484 434.263 368.121L381.498 396.712L368.673 389.777L355 406.589L382.437 424.957L442.634 380.351C445.089 381.205 447.763 381.336 450.299 380.727C452.835 380.118 455.114 378.799 456.833 376.944C458.552 375.089 459.628 372.787 459.92 370.343C460.211 367.9 459.704 365.431 458.465 363.265C457.226 361.098 455.315 359.338 452.985 358.217C450.655 357.096 448.016 356.668 445.421 356.99C442.826 357.312 440.396 358.368 438.455 360.018C436.515 361.668 435.155 363.835 434.557 366.228Z" fill="#FFB8B8"/>
<path d="M314.868 383.181L356.417 411.343L375 389.186L334.61 358.366C332.873 357.04 330.869 356.066 328.721 355.502C326.574 354.939 324.327 354.798 322.121 355.089C319.914 355.38 317.793 356.096 315.887 357.193C313.982 358.291 312.332 359.747 311.039 361.473C308.52 364.834 307.507 369.01 308.226 373.081C308.944 377.152 311.333 380.786 314.868 383.181Z" fill="#FDD741"/>
<path d="M229 701.432L243.478 705.02L265 653.914L243.633 648.618L229 701.432Z" fill="#FFB8B8"/>
<path d="M267.815 724.242L222.03 712.962L226.665 696.33L254.761 703.252C259.452 704.408 263.464 707.268 265.912 711.205C268.36 715.141 269.045 719.831 267.815 724.242Z" fill="#2F2E41"/>
<path d="M358.198 710.855L373 708.367L369.846 653.48L348 657.151L358.198 710.855Z" fill="#FFB8B8"/>
<path d="M404.074 716.417L357.48 724.242L354.265 707.316L382.856 702.515C385.22 702.117 387.645 702.162 389.99 702.646C392.336 703.13 394.557 704.043 396.528 705.334C398.498 706.625 400.178 708.268 401.473 710.17C402.768 712.071 403.652 714.194 404.074 716.417Z" fill="#2F2E41"/>
<path d="M328.758 306.867C332.395 307.701 335.355 311.189 337.132 315.231C338.771 319.475 339.881 323.885 340.439 328.371C341.835 336.724 343.176 345.768 340.288 353.505C336.903 362.573 327.884 367.323 320.06 365.091C312.236 362.859 306.013 354.481 303.887 344.837C301.952 335.092 303.199 325.025 307.464 315.96C309.687 311.198 312.75 306.804 316.821 304.655C318.818 303.519 321.198 303.136 323.483 303.584C325.768 304.032 327.787 305.278 329.136 307.071" fill="#2F2E41"/>
<path d="M349.716 458.02L378 695.724L354.64 704.047L311.555 544.649L251.57 690.392L226 691.725C226 691.725 261.084 464.95 287.084 459.796L349.716 458.02Z" fill="#2F2E41"/>
<path d="M326 337.438C342.569 337.438 356 324.594 356 308.751C356 292.907 342.569 280.063 326 280.063C309.431 280.063 296 292.907 296 308.751C296 324.594 309.431 337.438 326 337.438Z" fill="#FFB8B8"/>
<path d="M338.826 349.22L306.32 345.217C306.32 345.217 285.12 369.236 286.533 410.601C287.947 451.967 283 464.643 283 464.643L350.776 465.8C340.979 453.08 381.959 380.028 338.826 349.22Z" fill="#FDD741"/>
<path d="M356.207 470.811C355.533 470.816 354.86 470.87 354.195 470.975L312.824 429.37L317.042 416.087L296.655 407.453L284 436.675L343.521 481.403C343.201 483.838 343.674 486.307 344.875 488.482C346.076 490.656 347.95 492.434 350.247 493.578C352.544 494.723 355.156 495.179 357.734 494.887C360.312 494.595 362.735 493.568 364.681 491.944C366.627 490.319 368.003 488.173 368.626 485.792C369.249 483.411 369.091 480.906 368.171 478.612C367.251 476.318 365.613 474.343 363.476 472.949C361.339 471.556 358.804 470.81 356.207 470.811Z" fill="#FFB8B8"/>
<path d="M310.382 365.36L291 409.219L318.021 421.068L340.399 377.663C341.361 375.795 341.902 373.766 341.988 371.698C342.074 369.631 341.702 367.568 340.897 365.638C340.092 363.708 338.869 361.95 337.305 360.473C335.74 358.995 333.866 357.829 331.797 357.046C329.801 356.29 327.664 355.905 325.508 355.914C323.351 355.923 321.218 356.325 319.229 357.097C317.241 357.869 315.436 358.996 313.918 360.414C312.4 361.831 311.198 363.512 310.382 365.36Z" fill="#FDD741"/>
<path d="M317.885 334.139C322.577 331.569 323.078 325.369 322.44 320.261C321.803 315.154 320.738 309.46 323.899 305.283C327.673 300.299 335.255 300.2 341.717 300.037C348.18 299.874 356.05 298.077 357.725 292.148C358.831 288.23 356.464 284.026 353.067 281.567C349.67 279.108 345.42 278.02 341.289 276.987C332.048 274.676 322.507 272.345 313.045 273.615C303.673 274.873 295.199 279.585 289.458 286.73C283.717 293.875 281.169 302.88 282.366 311.795C283.898 323.199 286.119 328.179 284.661 333.207C281.945 342.573 270.237 348.59 270.003 358.302C269.821 365.898 276.888 371.759 283.782 375.616C289.251 378.675 295.154 381.272 301.456 381.988C307.759 382.704 314.544 381.333 319.239 377.277C325.294 372.045 326.792 363.305 325.056 355.708C323.32 348.112 318.865 341.365 314.459 334.814" fill="#2F2E41"/>
<path d="M888.949 343.271H453.051C450.121 343.276 447.313 344.371 445.242 346.319C443.17 348.266 442.004 350.906 442 353.66V616.836C442.004 619.59 443.17 622.23 445.242 624.177C447.313 626.124 450.121 627.22 453.051 627.224H888.949C891.879 627.22 894.687 626.124 896.758 624.177C898.83 622.23 899.996 619.59 900 616.836V353.66C899.996 350.906 898.83 348.266 896.758 346.319C894.687 344.371 891.879 343.276 888.949 343.271ZM897.544 616.836C897.542 618.978 896.635 621.032 895.024 622.547C893.413 624.062 891.228 624.914 888.949 624.916H453.051C450.772 624.914 448.587 624.062 446.976 622.547C445.365 621.032 444.458 618.978 444.456 616.836V353.66C444.458 351.518 445.365 349.464 446.976 347.949C448.587 346.434 450.772 345.582 453.051 345.58H888.949C891.228 345.582 893.413 346.434 895.024 347.949C896.635 349.464 897.542 351.518 897.544 353.66V616.836Z" fill="#3F3D56"/>
<path d="M545.637 473.579H477.363C474.616 473.576 471.982 472.549 470.039 470.724C468.096 468.898 467.003 466.423 467 463.841V399.687C467.003 397.105 468.096 394.63 470.039 392.805C471.982 390.979 474.616 389.952 477.363 389.949H545.637C548.384 389.952 551.018 390.979 552.961 392.805C554.904 394.63 555.997 397.105 556 399.687V463.841C555.997 466.423 554.904 468.898 552.961 470.724C551.018 472.549 548.384 473.576 545.637 473.579Z" fill="#FDD741"/>
<path d="M866.027 542.623H475.973C473.858 542.623 471.83 541.854 470.335 540.487C468.84 539.119 468 537.264 468 535.329C468 533.395 468.84 531.54 470.335 530.172C471.83 528.805 473.858 528.036 475.973 528.036H866.027C868.142 528.036 870.17 528.805 871.665 530.172C873.16 531.54 874 533.395 874 535.329C874 537.264 873.16 539.119 871.665 540.487C870.17 541.854 868.142 542.623 866.027 542.623Z" fill="#CCCCCC"/>
<path d="M866.027 506.642H475.973C473.858 506.642 471.83 505.822 470.335 504.363C468.84 502.905 468 500.926 468 498.863C468 496.799 468.84 494.821 470.335 493.362C471.83 491.903 473.858 491.083 475.973 491.083H866.027C868.142 491.083 870.17 491.903 871.665 493.362C873.16 494.821 874 496.799 874 498.863C874 500.926 873.16 502.905 871.665 504.363C870.17 505.822 868.142 506.642 866.027 506.642Z" fill="#CCCCCC"/>
<path d="M673.983 457.047H616.017C613.891 457.047 611.851 456.228 610.348 454.769C608.845 453.31 608 451.331 608 449.268C608 447.205 608.845 445.226 610.348 443.767C611.851 442.308 613.891 441.488 616.017 441.488H673.983C676.109 441.488 678.149 442.308 679.652 443.767C681.155 445.226 682 447.205 682 449.268C682 451.331 681.155 453.31 679.652 454.769C678.149 456.228 676.109 457.047 673.983 457.047Z" fill="#CCCCCC"/>
<path d="M866.032 420.095H615.968C613.855 420.095 611.828 419.276 610.334 417.817C608.839 416.358 608 414.379 608 412.316C608 410.252 608.839 408.274 610.334 406.815C611.828 405.356 613.855 404.536 615.968 404.536H866.032C868.145 404.536 870.172 405.356 871.666 406.815C873.161 408.274 874 410.252 874 412.316C874 414.379 873.161 416.358 871.666 417.817C870.172 419.276 868.145 420.095 866.032 420.095Z" fill="#CCCCCC"/>
<path d="M664.022 579.575H475.978C473.862 579.575 471.833 578.807 470.337 577.439C468.841 576.071 468 574.216 468 572.282C468 570.347 468.841 568.492 470.337 567.124C471.833 565.757 473.862 564.988 475.978 564.988H664.022C666.138 564.988 668.167 565.757 669.663 567.124C671.159 568.492 672 570.347 672 572.282C672 574.216 671.159 576.071 669.663 577.439C668.167 578.807 666.138 579.575 664.022 579.575Z" fill="#CCCCCC"/>
</svg>
