<svg width="90" height="111" viewBox="0 0 90 111" fill="none" xmlns="http://www.w3.org/2000/svg">
<path d="M45.46 110.732L22.6117 63.8372C17.4765 65.848 12.5647 65.144 7.87645 61.7252C3.1882 58.3064 0.845919 53.5497 0.849614 47.455C0.849614 43.694 1.96349 40.1741 4.19124 36.8953C6.41899 33.6204 9.89546 31.2673 14.6207 29.836C15.7844 20.766 19.3311 13.6561 25.2607 8.50657C31.1902 3.35701 37.831 0.782227 45.1829 0.782227C52.5349 0.782227 59.1757 3.35701 65.1052 8.50657C71.0348 13.6561 74.5815 20.7679 75.7452 29.8419C80.4741 31.2693 83.9506 33.6224 86.1747 36.9011C88.4024 40.176 89.5163 43.694 89.5163 47.455C89.5163 53.6275 87.2627 58.3473 82.7554 61.6144C78.2482 64.8815 73.4122 65.6205 68.2474 63.8313L45.46 110.732ZM17.4746 59.1232C18.86 59.1232 20.2233 58.8801 21.5644 58.394C22.9054 57.9078 24.1283 57.0813 25.2329 55.9145L28.2809 52.7057L31.8829 55.0393C33.8225 56.4006 35.9247 57.4216 38.1894 58.1022C40.4541 58.7829 42.7853 59.1232 45.1829 59.1232C47.5806 59.1232 49.9137 58.7829 52.1821 58.1022C54.4505 57.4216 56.5508 56.4006 58.4829 55.0393L62.085 52.7057L65.1329 55.9145C66.2413 57.0813 67.466 57.9078 68.8071 58.394C70.1482 58.8801 71.5096 59.1232 72.8913 59.1232C75.9392 59.1232 78.5493 57.9817 80.7217 55.6986C82.894 53.4155 83.9783 50.6677 83.9746 47.455C83.9746 44.538 83.0972 41.9865 81.3423 39.8007C79.5875 37.6148 77.3246 36.2769 74.5538 35.7868L70.3975 35.2034L70.1204 30.5361C69.6586 23.8269 67.0263 18.164 62.2236 13.5472C57.4208 8.93052 51.7406 6.62021 45.1829 6.61633C38.6253 6.61244 32.9451 8.92274 28.1423 13.5472C23.3395 18.1717 20.7073 23.8347 20.2454 30.5361L19.9684 35.2034L15.8121 36.0785C13.0413 36.6619 10.7784 37.9746 9.02357 40.0165C7.26871 42.0585 6.39128 44.538 6.39128 47.455C6.39128 50.6638 7.47745 53.4116 9.64978 55.6986C11.8221 57.9856 14.4304 59.1271 17.4746 59.1232ZM45.46 97.92L63.1934 61.4569L61.6971 60.115C58.845 61.6513 56.0003 62.8434 53.1629 63.6913C50.333 64.5353 47.673 64.9573 45.1829 64.9573C42.9737 64.9573 40.4744 64.5917 37.6851 63.8605C34.8958 63.1254 32.051 61.875 29.1509 60.1092L27.6657 61.4569L45.46 97.92Z" fill="#FDD741"/>
</svg>
