<svg width="62" height="58" viewBox="0 0 62 58" fill="none" xmlns="http://www.w3.org/2000/svg">
<path d="M0 57.9965V51.901H27.9V17.8426C26.5567 17.3855 25.3942 16.6743 24.4125 15.7092C23.4308 14.7441 22.7075 13.6012 22.2425 12.2805H12.4L21.7 33.6146C21.7 36.1544 20.6408 38.3132 18.5225 40.0911C16.4042 41.8689 13.8467 42.7578 10.85 42.7578C7.85333 42.7578 5.29583 41.8689 3.1775 40.0911C1.05917 38.3132 0 36.1544 0 33.6146L9.3 12.2805H3.1V6.18507H22.2425C22.8625 4.40722 23.9733 2.94736 25.575 1.80548C27.1767 0.663594 28.985 0.0916368 31 0.089605C33.015 0.0875732 34.8233 0.659531 36.425 1.80548C38.0267 2.95142 39.1375 4.41129 39.7575 6.18507H58.9V12.2805H52.7L62 33.6146C62 36.1544 60.9408 38.3132 58.8225 40.0911C56.7042 41.8689 54.1467 42.7578 51.15 42.7578C48.1533 42.7578 45.5958 41.8689 43.4775 40.0911C41.3592 38.3132 40.3 36.1544 40.3 33.6146L49.6 12.2805H39.7575C39.2925 13.6012 38.5692 14.7441 37.5875 15.7092C36.6058 16.6743 35.4433 17.3855 34.1 17.8426V51.901H62V57.9965H0ZM45.3375 33.6146H56.9625L51.15 20.357L45.3375 33.6146ZM5.0375 33.6146H16.6625L10.85 20.357L5.0375 33.6146ZM31 12.2805C31.8783 12.2805 32.6151 11.9879 33.2103 11.4028C33.8055 10.8176 34.1021 10.0943 34.1 9.2328C34.0979 8.3713 33.8003 7.64798 33.2072 7.06281C32.6141 6.47765 31.8783 6.18507 31 6.18507C30.1217 6.18507 29.3859 6.47765 28.7928 7.06281C28.1997 7.64798 27.9021 8.3713 27.9 9.2328C27.8979 10.0943 28.1955 10.8186 28.7928 11.4058C29.3901 11.993 30.1258 12.2846 31 12.2805Z" fill="#8E8E8E"/>
</svg>
