<svg width="15" height="13" viewBox="0 0 15 13" fill="none" xmlns="http://www.w3.org/2000/svg">
<path d="M2.84685 4.97827H12.8381C12.9694 4.97907 13.0991 4.95032 13.2178 4.89415C13.3365 4.83798 13.441 4.75583 13.5236 4.65379C13.6061 4.55175 13.6647 4.43243 13.6949 4.30467C13.7252 4.17692 13.7262 4.044 13.6981 3.91577C13.2456 1.78015 10.7831 0.228271 7.84247 0.228271C4.90185 0.228271 2.43935 1.78015 1.98685 3.91577C1.95871 4.044 1.95979 4.17692 1.99001 4.30467C2.02022 4.43243 2.0788 4.55175 2.16139 4.65379C2.24398 4.75583 2.34848 4.83798 2.46714 4.89415C2.58579 4.95032 2.71557 4.97907 2.84685 4.97827ZM2.72185 4.07327C3.09247 2.3089 5.2956 0.978271 7.84247 0.978271C10.3893 0.978271 12.5925 2.3089 12.9675 4.07327C12.9721 4.09199 12.9724 4.11152 12.9682 4.13035C12.964 4.14918 12.9555 4.16678 12.9434 4.18179C12.9313 4.1968 12.9159 4.20881 12.8984 4.21687C12.8809 4.22494 12.8617 4.22884 12.8425 4.22827H2.84685C2.82757 4.22884 2.80843 4.22494 2.79091 4.21687C2.7734 4.20881 2.75798 4.1968 2.74588 4.18179C2.73377 4.16678 2.7253 4.14918 2.72114 4.13035C2.71697 4.11152 2.71721 4.09199 2.72185 4.07327ZM14.2175 8.25077L11.5987 9.20202L9.23185 8.25515C9.14238 8.21933 9.04256 8.21933 8.9531 8.25515L6.59247 9.19952L4.23185 8.25515C4.14625 8.22085 4.05102 8.21929 3.96435 8.25077L1.21435 9.25077C1.13143 9.28087 1.06178 9.33923 1.01763 9.41559C0.973484 9.49196 0.95767 9.58144 0.97297 9.66831C0.988269 9.75519 1.0337 9.83388 1.10128 9.89057C1.16886 9.94726 1.25426 9.97831 1.34247 9.97827C1.38615 9.97817 1.42949 9.97056 1.4706 9.95577L2.4706 9.59327V10.1033C2.4706 10.7332 2.72082 11.3373 3.16622 11.7826C3.61162 12.228 4.21571 12.4783 4.8456 12.4783H10.8456C11.4755 12.4783 12.0796 12.228 12.525 11.7826C12.9704 11.3373 13.2206 10.7332 13.2206 10.1033V9.4114L14.4737 8.95577C14.5672 8.92179 14.6434 8.85206 14.6855 8.76193C14.7275 8.67179 14.7321 8.56864 14.6981 8.47515C14.6641 8.38166 14.5944 8.3055 14.5043 8.26342C14.4141 8.22134 14.311 8.21679 14.2175 8.25077ZM12.4675 10.1033C12.4675 10.5342 12.2963 10.9476 11.9915 11.2523C11.6868 11.5571 11.2734 11.7283 10.8425 11.7283H4.84247C4.41149 11.7283 3.99817 11.5571 3.69342 11.2523C3.38868 10.9476 3.21747 10.5342 3.21747 10.1033V9.32077L4.08622 9.00452L6.4531 9.9514C6.54256 9.98721 6.64238 9.98721 6.73185 9.9514L9.09247 9.00702L11.4531 9.9514C11.5387 9.98569 11.6339 9.98725 11.7206 9.95577L12.4675 9.6839V10.1033ZM0.967471 6.60327C0.967471 6.50382 1.00698 6.40843 1.07731 6.33811C1.14763 6.26778 1.24301 6.22827 1.34247 6.22827H14.3425C14.4419 6.22827 14.5373 6.26778 14.6076 6.33811C14.678 6.40843 14.7175 6.50382 14.7175 6.60327C14.7175 6.70273 14.678 6.79811 14.6076 6.86844C14.5373 6.93876 14.4419 6.97827 14.3425 6.97827H1.34247C1.24301 6.97827 1.14763 6.93876 1.07731 6.86844C1.00698 6.79811 0.967471 6.70273 0.967471 6.60327Z" fill="#FDD741"/>
</svg>
