<svg width="50" height="49" viewBox="0 0 50 49" fill="none" xmlns="http://www.w3.org/2000/svg">
<path d="M14.71 0H35.29C43.13 0 49.5 6.37 49.5 14.21V34.79C49.5 38.5587 48.0029 42.1731 45.338 44.838C42.6731 47.5029 39.0587 49 35.29 49H14.71C6.87 49 0.5 42.63 0.5 34.79V14.21C0.5 10.4413 1.99712 6.8269 4.66201 4.16201C7.3269 1.49712 10.9413 0 14.71 0ZM14.22 4.9C11.8808 4.9 9.63739 5.82925 7.98332 7.48332C6.32925 9.13739 5.4 11.3808 5.4 13.72V35.28C5.4 40.1555 9.3445 44.1 14.22 44.1H35.78C38.1192 44.1 40.3626 43.1708 42.0167 41.5167C43.6708 39.8626 44.6 37.6192 44.6 35.28V13.72C44.6 8.8445 40.6555 4.9 35.78 4.9H14.22ZM37.8625 8.575C38.6747 8.575 39.4537 8.89766 40.028 9.47199C40.6023 10.0463 40.925 10.8253 40.925 11.6375C40.925 12.4497 40.6023 13.2287 40.028 13.803C39.4537 14.3773 38.6747 14.7 37.8625 14.7C37.0503 14.7 36.2713 14.3773 35.697 13.803C35.1227 13.2287 34.8 12.4497 34.8 11.6375C34.8 10.8253 35.1227 10.0463 35.697 9.47199C36.2713 8.89766 37.0503 8.575 37.8625 8.575ZM25 12.25C28.2489 12.25 31.3647 13.5406 33.6621 15.8379C35.9594 18.1353 37.25 21.2511 37.25 24.5C37.25 27.7489 35.9594 30.8647 33.6621 33.1621C31.3647 35.4594 28.2489 36.75 25 36.75C21.7511 36.75 18.6353 35.4594 16.3379 33.1621C14.0406 30.8647 12.75 27.7489 12.75 24.5C12.75 21.2511 14.0406 18.1353 16.3379 15.8379C18.6353 13.5406 21.7511 12.25 25 12.25ZM25 17.15C23.0507 17.15 21.1812 17.9244 19.8028 19.3028C18.4244 20.6812 17.65 22.5507 17.65 24.5C17.65 26.4493 18.4244 28.3188 19.8028 29.6972C21.1812 31.0756 23.0507 31.85 25 31.85C26.9493 31.85 28.8188 31.0756 30.1972 29.6972C31.5756 28.3188 32.35 26.4493 32.35 24.5C32.35 22.5507 31.5756 20.6812 30.1972 19.3028C28.8188 17.9244 26.9493 17.15 25 17.15Z" fill="#FDD741"/>
</svg>
